<svg width="40" height="40" viewBox="0 0 40 40" fill="none" xmlns="http://www.w3.org/2000/svg">
<g clip-path="url(#clip0)">
<path d="M40 20C40 30.9086 31.0457 39.7515 20 39.7515C8.95431 39.7515 0 30.9086 0 20C0 9.09152 8.95431 0.248444 20 0.248444C31.0457 0.248444 40 9.09152 40 20Z" fill="white"/>
<path d="M28.9915 9.99149C29.6822 9.13835 30.9339 9.00667 31.7871 9.69738L32.5595 10.3227C33.4127 11.0135 33.5443 12.265 32.8534 13.1182L20.2195 28.7232C19.5287 29.5764 18.2772 29.7081 17.424 29.0174L15.1069 27.1414L28.9915 9.99149Z" fill="#99E2D0"/>
<path d="M18.6248 23.5771L15.6766 27.5769L7.71555 20.7025C6.88472 19.9851 6.7392 18.6872 7.39051 17.8036L7.98017 17.0036C8.63147 16.12 9.83299 15.9853 10.6638 16.7027L18.6248 23.5771Z" fill="#99E2D0"/>
</g>
<defs>
<clipPath id="clip0">
<rect width="40" height="40" fill="white"/>
</clipPath>
</defs>
</svg>
