<svg width="20px" height="20px" viewBox="0 0 161 159" fill="none" xmlns="http://www.w3.org/2000/svg">
<path d="M161 79.5C161 123.407 124.959 159 80.5 159C36.0411 159 0 123.407 0 79.5C0 35.5934 36.0411 0 80.5 0C124.959 0 161 35.5934 161 79.5Z" fill="white"/>
<path d="M115.691 36.2157C118.471 32.7818 123.509 32.2518 126.943 35.0319L130.052 37.5489C133.486 40.3291 134.016 45.3666 131.235 48.8005L80.3834 111.611C77.6032 115.045 72.5657 115.575 69.1318 112.795L59.8052 105.244L115.691 36.2157Z" fill="#99E2D0"/>
<path d="M73.9649 90.8979L62.0981 106.997L30.055 79.3275C26.7109 76.4399 26.1252 71.2159 28.7467 67.6594L31.1201 64.4396C33.7416 60.8831 38.5777 60.3409 41.9218 63.2285L73.9649 90.8979Z" fill="#99E2D0"/>
</svg>
