<svg width="30" height="30" viewBox="0 0 30 30" fill="none" xmlns="http://www.w3.org/2000/svg">
<g clip-path="url(#clip0)">
<path d="M30 15C30 23.1814 23.2843 29.8137 15 29.8137C6.71573 29.8137 0 23.1814 0 15C0 6.81865 6.71573 0.18634 15 0.18634C23.2843 0.18634 30 6.81865 30 15Z" fill="white"/>
<path d="M21.7437 7.49362C22.2617 6.85376 23.2004 6.755 23.8403 7.27304L24.4196 7.74204C25.0595 8.26009 25.1583 9.19876 24.6401 9.83861L15.1646 21.5424C14.6466 22.1823 13.7079 22.2811 13.068 21.7631L11.3302 20.356L21.7437 7.49362Z" fill="#99E2D0"/>
<path d="M13.9686 17.6828L11.7574 20.6827L5.78666 15.5269C5.16354 14.9888 5.0544 14.0154 5.54288 13.3527L5.98513 12.7527C6.47361 12.09 7.37474 11.989 7.99787 12.527L13.9686 17.6828Z" fill="#99E2D0"/>
</g>
<defs>
<clipPath id="clip0">
<rect width="30" height="30" fill="white"/>
</clipPath>
</defs>
</svg>
