<svg width="60" height="60" viewBox="0 0 60 60" fill="none" xmlns="http://www.w3.org/2000/svg">
<g clip-path="url(#clip0)">
<path d="M60 30C60 46.3629 46.5686 59.6273 30 59.6273C13.4315 59.6273 0 46.3629 0 30C0 13.6373 13.4315 0.372681 30 0.372681C46.5686 0.372681 60 13.6373 60 30Z" fill="white"/>
<path d="M43.4873 14.9872C44.5234 13.7075 46.4009 13.51 47.6806 14.5461L48.8393 15.4841C50.119 16.5202 50.3165 18.3975 49.2801 19.6772L30.3292 43.0849C29.2931 44.3646 27.4158 44.5621 26.1361 43.5261L22.6603 40.7121L43.4873 14.9872Z" fill="#99E2D0"/>
<path d="M27.9373 35.3657L23.5149 41.3653L11.5733 31.0537C10.3271 29.9776 10.1088 28.0308 11.0858 26.7054L11.9703 25.5054C12.9472 24.18 14.7495 23.978 15.9957 25.0541L27.9373 35.3657Z" fill="#99E2D0"/>
</g>
<defs>
<clipPath id="clip0">
<rect width="60" height="60" fill="white"/>
</clipPath>
</defs>
</svg>
