<svg width="80" height="80" viewBox="0 0 80 80" fill="none" xmlns="http://www.w3.org/2000/svg">
<g clip-path="url(#clip0)">
<path d="M80 40C80 61.8171 62.0914 79.5031 40 79.5031C17.9086 79.5031 0 61.8171 0 40C0 18.1831 17.9086 0.496902 40 0.496902C62.0914 0.496902 80 18.1831 80 40Z" fill="#99E2D0"/>
<path d="M57.9831 19.983C59.3645 18.2767 61.8679 18.0133 63.5742 19.3948L65.119 20.6454C66.8254 22.0269 67.0887 24.53 65.7069 26.2363L40.439 57.4465C39.0575 59.1528 36.5544 59.4162 34.8481 58.0348L30.2138 54.2828L57.9831 19.983Z" fill="white"/>
<path d="M37.2497 47.1542L31.3531 55.1538L15.4311 41.405C13.7694 39.9701 13.4784 37.3744 14.781 35.6072L15.9603 34.0073C17.2629 32.2401 19.666 31.9706 21.3276 33.4055L37.2497 47.1542Z" fill="white"/>
</g>
<defs>
<clipPath id="clip0">
<rect width="80" height="80" fill="white"/>
</clipPath>
</defs>
</svg>
