<svg class="checking" width="20px" height="20px" viewBox="0 0 161 159" fill="none" xmlns="http://www.w3.org/2000/svg">
<path d="M161 79.5C161 123.407 124.959 159 80.5 159C36.0411 159 0 123.407 0 79.5C0 35.5934 36.0411 0 80.5 0C124.959 0 161 35.5934 161 79.5Z" fill="white"/>
<path d="M116.691 39.2157C119.471 35.7818 124.509 35.2518 127.943 38.0319L131.052 40.5489C134.486 43.3291 135.016 48.3666 132.235 51.8005L81.3834 114.611C78.6032 118.045 73.5657 118.575 70.1318 115.795L60.8052 108.244L116.691 39.2157Z" fill="#99E2D0"/>
<path d="M74.9649 93.8979L63.0981 109.997L31.055 82.3275C27.7109 79.4399 27.1252 74.2159 29.7467 70.6594L32.1201 67.4396C34.7416 63.8831 39.5777 63.3409 42.9218 66.2285L74.9649 93.8979Z" fill="#99E2D0"/>
</svg>
