<?xml version="1.0" encoding="iso-8859-1"?>
<!-- Generator: Adobe Illustrator 16.0.0, SVG Export Plug-In . SVG Version: 6.00 Build 0)  -->
<!DOCTYPE svg PUBLIC "-//W3C//DTD SVG 1.1//EN" "http://www.w3.org/Graphics/SVG/1.1/DTD/svg11.dtd">
<svg version="1.1" id="Capa_1" xmlns="http://www.w3.org/2000/svg" xmlns:xlink="http://www.w3.org/1999/xlink" x="0px" y="0px"
	 width="612px" height="612px" viewBox="0 0 612 612" style="enable-background:new 0 0 612 612;" xml:space="preserve">
<g>
	<g id="_x36__9_">
		<g>
			<path d="M500.224,0.076H111.28L0.153,191.278l0,0h611.216L500.224,0.076z M0.153,229.519c-0.344,8.317,0,27.342,0,38.241
				c0,20.382,7.304,42.62,19.14,57.36l0.573,210.322c0,42.238,35.315,76.482,78.871,76.482h414.048
				c43.556,0,80.095-34.244,80.095-76.482V325.119c13.384-15.754,19.12-31.93,19.12-57.36v-38.241H0.153z M554.64,458.961H57.571
				L57.514,344.24c10.765,0,27.495,0,37.552,0c20.535,0,53.097-18.318,66.863-46.348c15.468,27.246,44.359,46.348,71.911,46.348
				c29.139,0,61.204-17.342,71.911-42.371c10.708,24.435,42.122,42.371,70.649,42.371c28.298,0,57.609-20.803,72.447-49.235
				c17.342,28.68,42.025,49.215,67.551,49.215c5.603,0,33.346,0.898,38.241,0V458.961z"/>
		</g>
	</g>
</g>
<g>
</g>
<g>
</g>
<g>
</g>
<g>
</g>
<g>
</g>
<g>
</g>
<g>
</g>
<g>
</g>
<g>
</g>
<g>
</g>
<g>
</g>
<g>
</g>
<g>
</g>
<g>
</g>
<g>
</g>
</svg>
