<svg width="21" height="21" viewBox="0 0 21 21" fill="black" xmlns="http://www.w3.org/2000/svg">
<mask id="path-1-inside-1" fill="white">
<path fill-rule="evenodd" clip-rule="evenodd" d="M10.6212 2.02807C8.29039 -0.293582 4.64883 -0.266558 2.33815 2.14847C-0.051794 4.64636 -0.112938 8.75301 2.20158 11.3209L7.32874 17.0095L10.1765 20.2754L10.2267 20.2247L10.2634 20.2654L12.5479 17.8776L18.5847 11.7737C21.024 9.30729 21.1533 5.18835 18.8735 2.5738C16.6828 0.0615065 13.065 -0.147622 10.6212 2.02807Z"/>
</mask>
<path d="M2.33815 2.14847L2.55492 2.35587L2.33815 2.14847ZM10.6212 2.02807L10.4095 2.24062L10.8207 2.25213L10.6212 2.02807ZM2.20158 11.3209L1.97874 11.5218L1.97874 11.5218L2.20158 11.3209ZM7.32874 17.0095L7.55488 16.8123L7.55158 16.8086L7.32874 17.0095ZM10.1765 20.2754L9.95042 20.4726L10.3898 20.4863L10.1765 20.2754ZM10.2267 20.2247L10.4495 20.0238L10.0134 20.0137L10.2267 20.2247ZM10.2634 20.2654L10.0405 20.4662L10.4801 20.4728L10.2634 20.2654ZM12.5479 17.8776L12.3346 17.6666L12.3311 17.6702L12.5479 17.8776ZM18.5847 11.7737L18.3714 11.5628L18.3714 11.5628L18.5847 11.7737ZM18.8735 2.5738L19.0996 2.37664L19.0996 2.37664L18.8735 2.5738ZM2.55492 2.35587C4.74955 0.0621194 8.19788 0.0376968 10.4095 2.24062L10.8329 1.81552C8.38291 -0.624861 4.5481 -0.595236 2.12139 1.94108L2.55492 2.35587ZM2.42442 11.1201C0.215075 8.66884 0.273569 4.74025 2.55492 2.35587L2.12139 1.94108C-0.377157 4.55246 -0.440952 8.83717 1.97874 11.5218L2.42442 11.1201ZM7.55158 16.8086L2.42442 11.1201L1.97874 11.5218L7.1059 17.2103L7.55158 16.8086ZM10.4026 20.0782L7.55485 16.8123L7.10263 17.2066L9.95042 20.4726L10.4026 20.0782ZM10.0134 20.0137L9.96322 20.0644L10.3898 20.4863L10.44 20.4356L10.0134 20.0137ZM10.4862 20.0645L10.4495 20.0238L10.0038 20.4255L10.0405 20.4662L10.4862 20.0645ZM12.3311 17.6702L10.0466 20.058L10.4801 20.4728L12.7647 18.085L12.3311 17.6702ZM18.3714 11.5628L12.3346 17.6667L12.7612 18.0886L18.798 11.9847L18.3714 11.5628ZM18.6473 2.77096C20.8239 5.2671 20.7002 9.20804 18.3714 11.5628L18.798 11.9847C21.3477 9.40655 21.4826 5.1096 19.0996 2.37664L18.6473 2.77096ZM10.8207 2.25213C13.1396 0.187565 16.5663 0.384297 18.6473 2.77096L19.0996 2.37664C16.7994 -0.261284 12.9903 -0.482809 10.4217 1.804L10.8207 2.25213Z" fill="black" mask="url(#path-1-inside-1)"/>
</svg>
