<svg width="303" height="281" viewBox="0 0 303 281" fill="none" xmlns="http://www.w3.org/2000/svg">
<rect width="8%" height="8%" fill="white"/>
<mask id="path-1-inside-1" fill="white">
<path fill-rule="evenodd" clip-rule="evenodd" d="M153.265 24.6818C118.014 -7.78071 63.1161 -7.4127 28.3001 26.3789C-7.76413 61.3822 -8.62433 118.994 26.3789 155.058L103.599 234.619L146.581 280.395L147.338 279.684L147.891 280.254L182.362 246.797L273.769 160.969C310.407 126.567 312.22 68.9773 277.818 32.3392C244.666 -2.9669 189.983 -5.9338 153.265 24.6818Z"/>
</mask>
<path fill-rule="evenodd" clip-rule="evenodd" d="M153.265 24.6818C118.014 -7.78071 63.1161 -7.4127 28.3001 26.3789C-7.76413 61.3822 -8.62433 118.994 26.3789 155.058L103.599 234.619L146.581 280.395L147.338 279.684L147.891 280.254L182.362 246.797L273.769 160.969C310.407 126.567 312.22 68.9773 277.818 32.3392C244.666 -2.9669 189.983 -5.9338 153.265 24.6818Z" fill="url(#paint0_linear)"/>
<path d="M28.3001 26.3789L28.9966 27.0965L28.3001 26.3789ZM153.265 24.6818L152.588 25.4174L153.232 26.0111L153.905 25.4498L153.265 24.6818ZM26.3789 155.058L27.0965 154.361L27.0965 154.361L26.3789 155.058ZM103.599 234.619L104.328 233.935L104.323 233.929L104.317 233.923L103.599 234.619ZM146.581 280.395L145.852 281.079L146.537 281.808L147.266 281.124L146.581 280.395ZM147.338 279.684L148.056 278.987L147.371 278.282L146.654 278.955L147.338 279.684ZM147.891 280.254L147.174 280.95L147.87 281.668L148.588 280.971L147.891 280.254ZM182.362 246.797L181.677 246.068L181.671 246.074L181.665 246.08L182.362 246.797ZM273.769 160.969L273.084 160.24L273.084 160.24L273.769 160.969ZM277.818 32.3392L278.547 31.6547L278.547 31.6547L277.818 32.3392ZM28.9966 27.0965C63.4297 -6.32354 117.724 -6.68777 152.588 25.4174L153.942 23.9462C118.303 -8.87365 62.8025 -8.50185 27.6037 25.6614L28.9966 27.0965ZM27.0965 154.361C-7.5221 118.694 -6.67134 61.7151 28.9966 27.0965L27.6037 25.6614C-8.85691 61.0492 -9.72657 119.294 25.6613 155.754L27.0965 154.361ZM104.317 233.923L27.0965 154.361L25.6613 155.754L102.882 235.316L104.317 233.923ZM147.31 279.71L104.328 233.935L102.87 235.304L145.852 281.079L147.31 279.71ZM146.654 278.955L145.897 279.666L147.266 281.124L148.023 280.413L146.654 278.955ZM148.609 279.557L148.056 278.987L146.621 280.38L147.174 280.95L148.609 279.557ZM181.665 246.08L147.195 279.536L148.588 280.971L183.058 247.515L181.665 246.08ZM273.084 160.24L181.677 246.068L183.046 247.526L274.454 161.698L273.084 160.24ZM277.089 33.0237C311.113 69.2592 309.32 126.216 273.084 160.24L274.454 161.698C311.494 126.918 313.327 68.6954 278.547 31.6547L277.089 33.0237ZM153.905 25.4498C190.219 -4.82874 244.302 -1.89416 277.089 33.0237L278.547 31.6547C245.031 -4.03965 189.747 -7.03887 152.625 23.9137L153.905 25.4498Z" fill="white" mask="url(#path-1-inside-1)"/>
<defs>
<linearGradient id="paint0_linear" x1="151.579" y1="0.679016" x2="151.579" y2="280.395" gradientUnits="userSpaceOnUse">
<stop offset="0.0885417" stop-color="#9356DC"/>
<stop offset="1" stop-color="#FF79DA" stop-opacity="0.7"/>
</linearGradient>
</defs>
</svg>
