<svg width="21" height="21" viewBox="0 0 21 21" fill="none" xmlns="http://www.w3.org/2000/svg">
<mask id="path-1-inside-1" fill="white">
<path fill-rule="evenodd" clip-rule="evenodd" d="M10.7961 1.82602C8.46529 -0.504606 4.82306 -0.477446 2.5119 1.94683C0.121638 4.4541 0.0602861 8.57595 2.37487 11.1532L7.50649 16.8673L10.3514 20.1418L10.4015 20.0909L10.4382 20.1318L12.7233 17.7347L18.7597 11.6092C21.1998 9.13294 21.3296 4.99808 19.0495 2.37372C16.8588 -0.147669 13.2407 -0.357442 10.7961 1.82602Z"/>
</mask>
<path fill-rule="evenodd" clip-rule="evenodd" d="M10.7961 1.82602C8.46529 -0.504606 4.82306 -0.477446 2.5119 1.94683C0.121638 4.4541 0.0602861 8.57595 2.37487 11.1532L7.50649 16.8673L10.3514 20.1418L10.4015 20.0909L10.4382 20.1318L12.7233 17.7347L18.7597 11.6092C21.1998 9.13294 21.3296 4.99808 19.0495 2.37372C16.8588 -0.147669 13.2407 -0.357442 10.7961 1.82602Z" fill="url(#paint0_linear)"/>
<path d="M2.5119 1.94683L1.78811 1.25682L1.78811 1.25682L2.5119 1.94683ZM10.7961 1.82602L10.0891 2.53316L10.7574 3.20143L11.4623 2.57184L10.7961 1.82602ZM2.37487 11.1532L3.11888 10.4851L3.11888 10.4851L2.37487 11.1532ZM7.50649 16.8673L8.26137 16.2115L8.25599 16.2053L8.2505 16.1992L7.50649 16.8673ZM10.3514 20.1418L9.5965 20.7976L10.3052 21.6133L11.0637 20.8437L10.3514 20.1418ZM10.4015 20.0909L11.1455 19.4227L10.4353 18.6319L9.6892 19.389L10.4015 20.0909ZM10.4382 20.1318L9.69415 20.7999L10.4162 21.604L11.162 20.8218L10.4382 20.1318ZM12.7233 17.7347L12.0111 17.0328L12.0053 17.0387L11.9995 17.0447L12.7233 17.7347ZM18.7597 11.6092L18.0474 10.9073L18.0474 10.9073L18.7597 11.6092ZM19.0495 2.37372L18.2946 3.02958L18.2946 3.02958L19.0495 2.37372ZM3.2357 2.63685C5.15991 0.618457 8.15595 0.600233 10.0891 2.53316L11.5032 1.11888C8.77463 -1.60944 4.48621 -1.57335 1.78811 1.25682L3.2357 2.63685ZM3.11888 10.4851C1.15324 8.29633 1.20579 4.76612 3.2357 2.63685L1.78811 1.25682C-0.962511 4.14208 -1.03267 8.85557 1.63086 11.8214L3.11888 10.4851ZM8.2505 16.1992L3.11888 10.4851L1.63086 11.8214L6.76248 17.5355L8.2505 16.1992ZM11.1063 19.4859L8.26137 16.2115L6.75161 17.5232L9.5965 20.7976L11.1063 19.4859ZM9.6892 19.389L9.6391 19.4399L11.0637 20.8437L11.1138 20.7928L9.6892 19.389ZM11.1822 19.4636L11.1455 19.4227L9.65747 20.7591L9.69415 20.7999L11.1822 19.4636ZM11.9995 17.0447L9.71437 19.4417L11.162 20.8218L13.4471 18.4248L11.9995 17.0447ZM18.0474 10.9073L12.0111 17.0328L13.4356 18.4366L19.4719 12.3111L18.0474 10.9073ZM18.2946 3.02958C20.2322 5.25968 20.121 8.80305 18.0474 10.9073L19.4719 12.3111C22.2787 9.46282 22.427 4.73649 19.8044 1.71786L18.2946 3.02958ZM11.4623 2.57184C13.4903 0.760483 16.4691 0.928435 18.2946 3.02958L19.8044 1.71786C17.2486 -1.22377 12.9912 -1.47537 10.13 1.0802L11.4623 2.57184Z" fill="white" mask="url(#path-1-inside-1)"/>
<defs>
<linearGradient id="paint0_linear" x1="10.6782" y1="0.102905" x2="10.6782" y2="20.1418" gradientUnits="userSpaceOnUse">
<stop offset="0.0885417" stop-color="#9356DC"/>
<stop offset="1" stop-color="#FF79DA" stop-opacity="0.7"/>
</linearGradient>
</defs>
</svg>
