<svg width="21" height="21" viewBox="0 0 21 21" fill="none" xmlns="http://www.w3.org/2000/svg">
<mask id="path-1-inside-1" fill="white">
<path fill-rule="evenodd" clip-rule="evenodd" d="M10.1806 2.86858C7.98599 0.428839 4.36972 0.375003 2.10345 2.74833C-0.162817 5.12167 -0.220904 9.02343 1.97371 11.4632L4.24302 13.986L10.1874 20.9092L19.0958 11.7616C21.3846 9.41139 21.5076 5.48843 19.3705 2.99945C17.2334 0.510468 13.6455 0.397991 11.3567 2.74822L10.6891 3.43383L10.1806 2.86858Z"/>
</mask>
<path d="M2.10345 2.74833L2.68204 3.30082L2.68204 3.30082L2.10345 2.74833ZM10.1806 2.86858L10.7754 2.33356L10.7754 2.33356L10.1806 2.86858ZM1.97371 11.4632L1.37894 11.9982L1.97371 11.4632ZM4.24302 13.986L4.84998 13.4648L4.84397 13.4578L4.8378 13.4509L4.24302 13.986ZM10.1874 20.9092L9.58044 21.4303L10.1503 22.094L10.7605 21.4673L10.1874 20.9092ZM19.0958 11.7616L19.6689 12.3198L19.6689 12.3198L19.0958 11.7616ZM11.3567 2.74822L11.9299 3.30637L11.9299 3.30637L11.3567 2.74822ZM10.6891 3.43383L10.0943 3.96885L10.6659 4.60429L11.2622 3.99198L10.6891 3.43383ZM2.68204 3.30082C4.62667 1.26432 7.70268 1.31012 9.58583 3.4036L10.7754 2.33356C8.26929 -0.452438 4.11278 -0.514317 1.52487 2.19585L2.68204 3.30082ZM2.56849 10.9282C0.653613 8.7994 0.704643 5.37163 2.68204 3.30082L1.52487 2.19585C-1.03028 4.8717 -1.09542 9.24746 1.37894 11.9982L2.56849 10.9282ZM4.8378 13.4509L2.56849 10.9282L1.37894 11.9982L3.64825 14.521L4.8378 13.4509ZM10.7944 20.388L4.84998 13.4648L3.63606 14.5071L9.58044 21.4303L10.7944 20.388ZM18.5227 11.2035L9.61428 20.351L10.7605 21.4673L19.6689 12.3198L18.5227 11.2035ZM18.7635 3.5206C20.6308 5.69531 20.5225 9.14999 18.5227 11.2035L19.6689 12.3198C22.2467 9.67278 22.3844 5.28155 19.9775 2.4783L18.7635 3.5206ZM11.9299 3.30637C13.8908 1.29281 16.9326 1.38817 18.7635 3.5206L19.9775 2.4783C17.5342 -0.367233 13.4003 -0.496829 10.7836 2.19008L11.9299 3.30637ZM11.2622 3.99198L11.9299 3.30637L10.7836 2.19008L10.1159 2.87569L11.2622 3.99198ZM9.58583 3.4036L10.0943 3.96885L11.2838 2.89881L10.7754 2.33356L9.58583 3.4036Z" fill="black" mask="url(#path-1-inside-1)"/>
</svg>
