<svg width="42" height="47" viewBox="0 0 42 47" fill="none" xmlns="http://www.w3.org/2000/svg">
<mask id="path-1-outside-1" maskUnits="userSpaceOnUse" x="0" y="0" width="42" height="47" fill="black">
<rect fill="white" width="42" height="47"/>
<path fill-rule="evenodd" clip-rule="evenodd" d="M21.0805 15.1527L28.0524 22.8879L22.3285 28.8703L20.7554 30.4609L18.5704 28.0367L13.7761 22.5384L21.0805 15.1527ZM20.4027 14.4199L13.1189 21.7847L13.0425 21.862C11.4576 19.6975 11.6218 16.5456 13.5027 14.5797C15.4246 12.571 18.4422 12.5284 20.4027 14.4199ZM21.1163 13.7165C18.7855 11.3948 15.1439 11.4219 12.8332 13.8369C10.4433 16.3348 10.3821 20.4414 12.6967 23.0094L17.8239 28.6979L20.0144 31.2101L20.6716 31.9638L20.7218 31.9131L20.7584 31.9538L21.4498 31.2312L23.043 29.566L29.0798 23.4621C31.519 20.9957 31.6483 16.8768 29.3685 14.2622C27.1779 11.7499 23.56 11.5408 21.1163 13.7165ZM21.7945 14.4553L28.7437 22.1653L28.8239 22.2544C30.4788 20.157 30.4483 17.0179 28.6654 14.9732C26.8436 12.8839 23.8478 12.6891 21.7945 14.4553Z"/>
</mask>
<path fill-rule="evenodd" clip-rule="evenodd" d="M21.0805 15.1527L28.0524 22.8879L22.3285 28.8703L20.7554 30.4609L18.5704 28.0367L13.7761 22.5384L21.0805 15.1527ZM20.4027 14.4199L13.1189 21.7847L13.0425 21.862C11.4576 19.6975 11.6218 16.5456 13.5027 14.5797C15.4246 12.571 18.4422 12.5284 20.4027 14.4199ZM21.1163 13.7165C18.7855 11.3948 15.1439 11.4219 12.8332 13.8369C10.4433 16.3348 10.3821 20.4414 12.6967 23.0094L17.8239 28.6979L20.0144 31.2101L20.6716 31.9638L20.7218 31.9131L20.7584 31.9538L21.4498 31.2312L23.043 29.566L29.0798 23.4621C31.519 20.9957 31.6483 16.8768 29.3685 14.2622C27.1779 11.7499 23.56 11.5408 21.1163 13.7165ZM21.7945 14.4553L28.7437 22.1653L28.8239 22.2544C30.4788 20.157 30.4483 17.0179 28.6654 14.9732C26.8436 12.8839 23.8478 12.6891 21.7945 14.4553Z" fill="black"/>
<path d="M28.0524 22.8879L35.2778 29.8011L41.6979 23.0911L35.4804 16.1928L28.0524 22.8879ZM21.0805 15.1527L28.5086 8.45768L21.4179 0.590613L13.9705 8.12088L21.0805 15.1527ZM22.3285 28.8703L29.4385 35.9022L29.4967 35.8433L29.5539 35.7835L22.3285 28.8703ZM20.7554 30.4609L13.3273 37.1559L20.4181 45.023L27.8655 37.4927L20.7554 30.4609ZM18.5704 28.0367L11.0333 34.6087L11.0873 34.6707L11.1424 34.7317L18.5704 28.0367ZM13.7761 22.5384L6.66606 15.5065L0.135049 22.1102L6.23904 29.1105L13.7761 22.5384ZM20.4027 14.4199L27.5128 21.4517L34.6323 14.2531L27.346 7.22327L20.4027 14.4199ZM13.1189 21.7847L20.229 28.8165L20.229 28.8165L13.1189 21.7847ZM13.0425 21.862L4.97421 27.7698L11.9041 37.234L20.1526 28.8938L13.0425 21.862ZM13.5027 14.5797L20.7282 21.4929L20.7282 21.4929L13.5027 14.5797ZM21.1163 13.7165L14.0591 20.8014L20.7317 27.4478L27.7658 21.1853L21.1163 13.7165ZM12.8332 13.8369L5.60779 6.92365L5.60778 6.92365L12.8332 13.8369ZM12.6967 23.0094L20.1247 16.3143L20.1247 16.3143L12.6967 23.0094ZM17.8239 28.6979L25.3609 22.1258L25.3069 22.0639L25.2519 22.0029L17.8239 28.6979ZM20.0144 31.2101L27.5515 24.638L27.5515 24.638L20.0144 31.2101ZM20.6716 31.9638L13.1345 38.5359L20.2107 46.6511L27.7818 38.9956L20.6716 31.9638ZM20.7218 31.9131L28.1498 25.218L21.0591 17.3509L13.6116 24.8813L20.7218 31.9131ZM20.7584 31.9538L13.3304 38.6488L20.5397 46.6475L27.9839 38.867L20.7584 31.9538ZM21.4498 31.2312L14.2243 24.318L14.2243 24.318L21.4498 31.2312ZM23.043 29.566L15.9329 22.5342L15.8747 22.593L15.8175 22.6528L23.043 29.566ZM29.0798 23.4621L36.1898 30.494L36.1898 30.494L29.0798 23.4621ZM29.3685 14.2622L36.9056 7.69013L36.9056 7.69013L29.3685 14.2622ZM28.7437 22.1653L21.3156 28.8604L21.3156 28.8604L28.7437 22.1653ZM21.7945 14.4553L15.2735 6.87391L7.51421 13.5479L14.3664 21.1503L21.7945 14.4553ZM28.8239 22.2544L21.3959 28.9494L29.3321 37.7545L36.6745 28.4485L28.8239 22.2544ZM28.6654 14.9732L36.2025 8.40114L36.2024 8.40114L28.6654 14.9732ZM35.4804 16.1928L28.5086 8.45768L13.6525 21.8478L20.6243 29.5829L35.4804 16.1928ZM29.5539 35.7835L35.2778 29.8011L20.8269 15.9747L15.103 21.9571L29.5539 35.7835ZM27.8655 37.4927L29.4385 35.9022L15.2184 21.8384L13.6453 23.429L27.8655 37.4927ZM11.1424 34.7317L13.3273 37.1559L28.1835 23.7658L25.9985 21.3416L11.1424 34.7317ZM6.23904 29.1105L11.0333 34.6087L26.1075 21.4646L21.3132 15.9663L6.23904 29.1105ZM13.9705 8.12088L6.66606 15.5065L20.8862 29.5702L28.1906 22.1846L13.9705 8.12088ZM13.2926 7.38803L6.00885 14.7528L20.229 28.8165L27.5128 21.4517L13.2926 7.38803ZM6.00886 14.7528L5.93244 14.8301L20.1526 28.8938L20.229 28.8165L6.00886 14.7528ZM6.27729 7.66646C0.973433 13.2099 0.584817 21.7753 4.97421 27.7698L21.1108 15.9541C21.7841 16.8736 22.0068 17.879 21.9551 18.7438C21.9027 19.6186 21.5504 20.6336 20.7282 21.4929L6.27729 7.66646ZM27.346 7.22327C21.3937 1.48053 12.0232 1.6611 6.27729 7.66646L20.7282 21.4929C18.8261 23.4809 15.4908 23.5763 13.4594 21.6165L27.346 7.22327ZM28.1734 6.63153C21.8694 0.352198 11.7865 0.465926 5.60779 6.92365L20.0587 20.7501C19.3632 21.477 18.2945 21.9848 17.0908 21.9997C15.8937 22.0145 14.7985 21.5379 14.0591 20.8014L28.1734 6.63153ZM5.60778 6.92365C-0.402124 13.205 -0.551637 23.2469 5.2686 29.7044L20.1247 16.3143C20.7898 17.0522 21.0095 17.8864 20.9997 18.5457C20.9899 19.205 20.7455 20.0323 20.0587 20.7501L5.60778 6.92365ZM5.2686 29.7044L10.3958 35.393L25.2519 22.0029L20.1247 16.3143L5.2686 29.7044ZM10.2868 35.27L12.4773 37.7822L27.5515 24.638L25.3609 22.1258L10.2868 35.27ZM12.4773 37.7822L13.1345 38.5359L28.2087 25.3917L27.5515 24.638L12.4773 37.7822ZM27.7818 38.9956L27.8319 38.9449L13.6116 24.8813L13.5615 24.932L27.7818 38.9956ZM13.2937 38.6081L13.3304 38.6488L28.1865 25.2587L28.1498 25.218L13.2937 38.6081ZM27.9839 38.867L28.6752 38.1445L14.2243 24.318L13.533 25.0405L27.9839 38.867ZM28.6752 38.1445L30.2685 36.4793L15.8175 22.6528L14.2243 24.318L28.6752 38.1445ZM30.1531 36.5979L36.1898 30.494L21.9697 16.4303L15.9329 22.5342L30.1531 36.5979ZM36.1898 30.494C42.3115 24.3042 42.627 14.2516 36.9056 7.69013L21.8315 20.8343C21.1824 20.09 20.9782 19.2577 20.9987 18.604C21.0193 17.9502 21.2752 17.1325 21.9697 16.4303L36.1898 30.494ZM36.9056 7.69013C31.0635 0.990228 21.071 0.367893 14.4668 6.24763L27.7658 21.1853C26.9913 21.8749 25.8833 22.2863 24.7027 22.2112C23.5145 22.1356 22.4844 21.5831 21.8315 20.8343L36.9056 7.69013ZM36.1718 15.4703L29.2225 7.76022L14.3664 21.1503L21.3156 28.8604L36.1718 15.4703ZM36.252 15.5593L36.1718 15.4703L21.3156 28.8604L21.3959 28.9494L36.252 15.5593ZM36.6745 28.4485C41.2403 22.6618 41.2198 14.1552 36.2025 8.40114L21.1283 21.5453C20.3556 20.6592 20.0512 19.6419 20.0355 18.7755C20.0199 17.9198 20.279 16.9402 20.9733 16.0602L36.6745 28.4485ZM36.2024 8.40114C30.7738 2.17539 21.5002 1.51815 15.2735 6.87391L28.3154 22.0366C26.1954 23.8601 22.9133 23.5925 21.1283 21.5453L36.2024 8.40114Z" fill="white" mask="url(#path-1-outside-1)"/>
<rect width="1.14318" height="10.4441" transform="translate(13.8109 22.5854) rotate(-135.016)" fill="white"/>
<rect width="1.19415" height="10.462" transform="translate(20.9937 15.1795) rotate(-42.3403)" fill="white"/>
</svg>
