<svg width="20" height="20" viewBox="0 0 21 21" fill="none" xmlns="http://www.w3.org/2000/svg">
<mask id="path-1-inside-1" fill="white">
<path fill-rule="evenodd" clip-rule="evenodd" d="M10.7925 1.88404C8.46167 -0.43761 4.82011 -0.410586 2.50943 2.00444C0.119486 4.50233 0.0583417 8.60898 2.37286 11.1769L7.50002 16.8654L10.3478 20.1314L10.398 20.0807L10.4346 20.1213L12.7192 17.7336L18.756 11.6297C21.1952 9.16326 21.3245 5.04432 19.0447 2.42977C16.8541 -0.0825213 13.2362 -0.29165 10.7925 1.88404Z"/>
</mask>
<path fill-rule="evenodd" clip-rule="evenodd" d="M10.7925 1.88404C8.46167 -0.43761 4.82011 -0.410586 2.50943 2.00444C0.119486 4.50233 0.0583417 8.60898 2.37286 11.1769L7.50002 16.8654L10.3478 20.1314L10.398 20.0807L10.4346 20.1213L12.7192 17.7336L18.756 11.6297C21.1952 9.16326 21.3245 5.04432 19.0447 2.42977C16.8541 -0.0825213 13.2362 -0.29165 10.7925 1.88404Z" fill="url(#paint0_linear)"/>
<path d="M2.50943 2.00444L3.23198 2.69577L3.23198 2.69577L2.50943 2.00444ZM10.7925 1.88404L10.0868 2.59254L10.754 3.25717L11.4574 2.63093L10.7925 1.88404ZM2.37286 11.1769L1.63005 11.8464L1.63005 11.8464L2.37286 11.1769ZM7.50002 16.8654L8.25373 16.2082L8.24833 16.202L8.24283 16.1959L7.50002 16.8654ZM10.3478 20.1314L9.5941 20.7886L10.3017 21.6001L11.0588 20.8345L10.3478 20.1314ZM10.398 20.0807L11.1408 19.4111L10.4317 18.6244L9.68695 19.3775L10.398 20.0807ZM10.4346 20.1213L9.69183 20.7908L10.4128 21.5907L11.1572 20.8127L10.4346 20.1213ZM12.7192 17.7336L12.0082 17.0304L12.0024 17.0363L11.9966 17.0423L12.7192 17.7336ZM18.756 11.6297L18.0449 10.9265L18.0449 10.9265L18.756 11.6297ZM19.0447 2.42977L19.7984 1.77257L19.7984 1.77256L19.0447 2.42977ZM3.23198 2.69577C5.15585 0.685007 8.15329 0.666654 10.0868 2.59254L11.4982 1.17554C8.77006 -1.54187 4.48436 -1.50618 1.78689 1.31312L3.23198 2.69577ZM3.11567 10.5074C1.15172 8.32843 1.20403 4.81531 3.23198 2.69577L1.78689 1.31312C-0.965056 4.18935 -1.03504 8.88953 1.63005 11.8464L3.11567 10.5074ZM8.24283 16.1959L3.11567 10.5074L1.63005 11.8464L6.75722 17.5349L8.24283 16.1959ZM11.1015 19.4742L8.25373 16.2082L6.74631 17.5226L9.5941 20.7886L11.1015 19.4742ZM9.68695 19.3775L9.63679 19.4282L11.0588 20.8345L11.109 20.7838L9.68695 19.3775ZM11.1774 19.4518L11.1408 19.4111L9.65515 20.7502L9.69183 20.7908L11.1774 19.4518ZM11.9966 17.0423L9.71209 19.43L11.1572 20.8127L13.4417 18.4249L11.9966 17.0423ZM18.0449 10.9265L12.0082 17.0304L13.4302 18.4368L19.467 12.3329L18.0449 10.9265ZM18.291 3.08698C20.2267 5.30684 20.116 8.83241 18.0449 10.9265L19.467 12.3329C22.2745 9.49411 22.4224 4.78181 19.7984 1.77257L18.291 3.08698ZM11.4574 2.63093C13.4851 0.82564 16.4655 0.993448 18.291 3.08698L19.7984 1.77256C17.2427 -1.15849 12.9873 -1.40894 10.1275 1.13715L11.4574 2.63093Z" fill="white" mask="url(#path-1-inside-1)"/>
<defs>
<linearGradient id="paint0_linear" x1="10.6748" y1="0.167557" x2="10.6748" y2="20.1314" gradientUnits="userSpaceOnUse">
<stop offset="0.0885417" stop-color="#9356DC"/>
<stop offset="1" stop-color="#FF79DA" stop-opacity="0.7"/>
</linearGradient>
</defs>
</svg>
