<svg width="50px" height="50px" viewBox="0 0 21 20" fill="none" xmlns="http://www.w3.org/2000/svg">
<mask id="path-1-inside-1" fill="white">
<path fill-rule="evenodd" clip-rule="evenodd" d="M9.8156 1.86562C7.62098 -0.574126 4.00471 -0.627962 1.73844 1.74537C-0.527826 4.1187 -0.585913 8.02047 1.6087 10.4602L3.87802 12.983L9.8224 19.9062L18.7308 10.7587C21.0196 8.40842 21.1426 4.48547 19.0055 1.99649C16.8684 -0.492496 13.2805 -0.604974 10.9917 1.74526L10.3241 2.43087L9.8156 1.86562Z"/>
</mask>
<path d="M1.73844 1.74537L2.46167 2.43598L2.46167 2.43598L1.73844 1.74537ZM9.8156 1.86562L10.5591 1.19685L10.5591 1.19684L9.8156 1.86562ZM1.6087 10.4602L0.865236 11.129L0.865236 11.129L1.6087 10.4602ZM3.87802 12.983L4.63673 12.3316L4.62921 12.3228L4.62149 12.3142L3.87802 12.983ZM9.8224 19.9062L9.06369 20.5576L9.77597 21.3872L10.5388 20.6039L9.8224 19.9062ZM18.7308 10.7587L18.0144 10.061L18.0144 10.061L18.7308 10.7587ZM19.0055 1.99649L18.2468 2.64792L18.2468 2.64792L19.0055 1.99649ZM10.9917 1.74526L11.7081 2.44294L11.7081 2.44294L10.9917 1.74526ZM10.3241 2.43087L9.58059 3.09964L10.2951 3.89394L11.0405 3.12855L10.3241 2.43087ZM2.46167 2.43598C4.32589 0.483688 7.26685 0.52747 9.07213 2.53439L10.5591 1.19684C7.97511 -1.67572 3.68353 -1.73961 1.01521 1.05476L2.46167 2.43598ZM2.35217 9.79144C0.507233 7.74043 0.556499 4.43115 2.46167 2.43598L1.01521 1.05476C-1.61215 3.80625 -1.67906 8.30051 0.865236 11.129L2.35217 9.79144ZM4.62149 12.3142L2.35217 9.79144L0.865236 11.129L3.13455 13.6518L4.62149 12.3142ZM10.5811 19.2548L4.63673 12.3316L3.11932 13.6344L9.06369 20.5576L10.5811 19.2548ZM18.0144 10.061L9.10599 19.2085L10.5388 20.6039L19.4472 11.4563L18.0144 10.061ZM18.2468 2.64792C20.0466 4.74406 19.9419 8.08168 18.0144 10.061L19.4472 11.4563C22.0972 8.73517 22.2386 4.22687 19.7642 1.34505L18.2468 2.64792ZM11.7081 2.44294C13.5871 0.513551 16.4924 0.604631 18.2468 2.64792L19.7642 1.34505C17.2444 -1.58962 12.974 -1.7235 10.2753 1.04758L11.7081 2.44294ZM11.0405 3.12855L11.7081 2.44294L10.2753 1.04758L9.60765 1.73318L11.0405 3.12855ZM9.07213 2.53439L9.58059 3.09964L11.0675 1.76209L10.5591 1.19685L9.07213 2.53439Z" fill="black" mask="url(#path-1-inside-1)"/>
</svg>
